<svg width="32" height="32" viewBox="0 0 32 32" fill="none" xmlns="http://www.w3.org/2000/svg">
  <defs>
    <linearGradient id="bgGradient" x1="0%" y1="0%" x2="100%" y2="100%">
      <stop offset="0%" style="stop-color:#000000;stop-opacity:1" />
      <stop offset="100%" style="stop-color:#333333;stop-opacity:1" />
    </linearGradient>
  </defs>
  
  <!-- Background with rounded corners -->
  <rect width="32" height="32" rx="6" fill="url(#bgGradient)" />
  
  <!-- Skull icon centered -->
  <g transform="translate(8, 8) scale(0.667)">
    <path d="M12 2C6.477 2 2 6.477 2 12c0 3.6 1.911 6.753 4.778 8.5.206.125.328.354.32.598l-.046.935c-.028.579.492.98 1.022.785l1.545-.567a.75.75 0 0 1 .572.015A10.97 10.97 0 0 0 12 22c5.523 0 10-4.477 10-10S17.523 2 12 2Z" fill="white" />
    <circle cx="9" cy="10" r="1.5" fill="#000000" />
    <circle cx="15" cy="10" r="1.5" fill="#000000" />
    <path d="M10.5 15h3v2h-3z" fill="#000000" />
    <path d="M8.5 16h1.5v1H8.5zM14 16h1.5v1H14z" fill="#000000" />
  </g>
</svg>
